<mxfile host="app.diagrams.net" modified="2024-05-20T14:56:29.893Z" agent="Mozilla/5.0 (Windows NT 10.0; Win64; x64) AppleWebKit/537.36 (KHTML, like Gecko) Chrome/124.0.0.0 Safari/537.36" etag="5S5nYq0SfTh2lzyeEXJb" version="24.3.1" type="github">
  <diagram name="Page-1" id="dzp0P84TSuH4hanlOHp8">
    <mxGraphModel dx="880" dy="460" grid="1" gridSize="10" guides="1" tooltips="1" connect="1" arrows="1" fold="1" page="1" pageScale="1" pageWidth="827" pageHeight="1169" math="0" shadow="0">
      <root>
        <mxCell id="0" />
        <mxCell id="1" parent="0" />
        <object label="" id="hglJCg2SkFixT-TFs8rG-2">
          <mxCell style="verticalLabelPosition=bottom;verticalAlign=top;html=1;shape=mxgraph.basic.layered_rect;dx=10;outlineConnect=0;whiteSpace=wrap;rotation=0;direction=west;fillColor=#dae8fc;strokeColor=#6c8ebf;" vertex="1" parent="1">
            <mxGeometry x="298" y="500" width="116" height="70" as="geometry" />
          </mxCell>
        </object>
        <mxCell id="hglJCg2SkFixT-TFs8rG-3" value="" style="verticalLabelPosition=bottom;verticalAlign=top;html=1;shape=mxgraph.basic.layered_rect;dx=10;outlineConnect=0;whiteSpace=wrap;direction=west;fillColor=#f8cecc;strokeColor=#b85450;" vertex="1" parent="1">
          <mxGeometry x="480" y="500" width="120" height="70" as="geometry" />
        </mxCell>
        <mxCell id="hglJCg2SkFixT-TFs8rG-5" value="Gene Corpora" style="rounded=1;whiteSpace=wrap;html=1;" vertex="1" parent="1">
          <mxGeometry x="330" y="520" width="64" height="40" as="geometry" />
        </mxCell>
        <mxCell id="hglJCg2SkFixT-TFs8rG-8" value="Proteine Corpora" style="rounded=1;whiteSpace=wrap;html=1;" vertex="1" parent="1">
          <mxGeometry x="508" y="520" width="64" height="40" as="geometry" />
        </mxCell>
        <mxCell id="hglJCg2SkFixT-TFs8rG-10" value="" style="rounded=1;whiteSpace=wrap;html=1;" vertex="1" parent="1">
          <mxGeometry x="160" y="380" width="610" height="50" as="geometry" />
        </mxCell>
        <mxCell id="hglJCg2SkFixT-TFs8rG-14" value="" style="shape=flexArrow;endArrow=classic;html=1;rounded=0;" edge="1" parent="1">
          <mxGeometry width="50" height="50" relative="1" as="geometry">
            <mxPoint x="344" y="500" as="sourcePoint" />
            <mxPoint x="380" y="460" as="targetPoint" />
          </mxGeometry>
        </mxCell>
        <mxCell id="hglJCg2SkFixT-TFs8rG-17" value="" style="shape=flexArrow;endArrow=classic;html=1;rounded=0;exitX=0;exitY=0;exitDx=65;exitDy=70;exitPerimeter=0;" edge="1" parent="1" source="hglJCg2SkFixT-TFs8rG-3">
          <mxGeometry width="50" height="50" relative="1" as="geometry">
            <mxPoint x="230" y="470" as="sourcePoint" />
            <mxPoint x="500" y="460" as="targetPoint" />
          </mxGeometry>
        </mxCell>
        <mxCell id="hglJCg2SkFixT-TFs8rG-24" value="" style="endArrow=none;html=1;rounded=0;" edge="1" parent="1">
          <mxGeometry width="50" height="50" relative="1" as="geometry">
            <mxPoint x="280" y="460" as="sourcePoint" />
            <mxPoint x="620" y="460" as="targetPoint" />
          </mxGeometry>
        </mxCell>
        <mxCell id="hglJCg2SkFixT-TFs8rG-26" value="" style="shape=flexArrow;endArrow=classic;html=1;rounded=0;entryX=0.467;entryY=1;entryDx=0;entryDy=0;entryPerimeter=0;" edge="1" parent="1" target="hglJCg2SkFixT-TFs8rG-10">
          <mxGeometry width="50" height="50" relative="1" as="geometry">
            <mxPoint x="445" y="460" as="sourcePoint" />
            <mxPoint x="440" y="420" as="targetPoint" />
          </mxGeometry>
        </mxCell>
        <mxCell id="hglJCg2SkFixT-TFs8rG-27" value="" style="shape=link;html=1;rounded=0;entryX=0.465;entryY=0.04;entryDx=0;entryDy=0;entryPerimeter=0;exitX=0.467;exitY=1.02;exitDx=0;exitDy=0;exitPerimeter=0;" edge="1" parent="1" source="hglJCg2SkFixT-TFs8rG-10" target="hglJCg2SkFixT-TFs8rG-10">
          <mxGeometry width="100" relative="1" as="geometry">
            <mxPoint x="370" y="440" as="sourcePoint" />
            <mxPoint x="470" y="440" as="targetPoint" />
          </mxGeometry>
        </mxCell>
        <mxCell id="hglJCg2SkFixT-TFs8rG-28" value="" style="rounded=0;whiteSpace=wrap;html=1;fillColor=#dae8fc;strokeColor=#6c8ebf;" vertex="1" parent="1">
          <mxGeometry x="460" y="410" width="10" height="10" as="geometry" />
        </mxCell>
        <mxCell id="hglJCg2SkFixT-TFs8rG-29" value="" style="rounded=0;whiteSpace=wrap;html=1;fillColor=#ffe6cc;strokeColor=#d79b00;" vertex="1" parent="1">
          <mxGeometry x="498" y="410" width="10" height="10" as="geometry" />
        </mxCell>
        <mxCell id="hglJCg2SkFixT-TFs8rG-30" value="" style="rounded=0;whiteSpace=wrap;html=1;fillColor=#f8cecc;strokeColor=#b85450;" vertex="1" parent="1">
          <mxGeometry x="540" y="410" width="10" height="10" as="geometry" />
        </mxCell>
        <mxCell id="hglJCg2SkFixT-TFs8rG-31" value="" style="rounded=0;whiteSpace=wrap;html=1;fillColor=#e1d5e7;strokeColor=#9673a6;" vertex="1" parent="1">
          <mxGeometry x="620" y="410" width="10" height="10" as="geometry" />
        </mxCell>
        <mxCell id="hglJCg2SkFixT-TFs8rG-32" value="" style="rounded=0;whiteSpace=wrap;html=1;fillColor=#fff2cc;strokeColor=#d6b656;" vertex="1" parent="1">
          <mxGeometry x="580" y="410" width="10" height="10" as="geometry" />
        </mxCell>
        <mxCell id="hglJCg2SkFixT-TFs8rG-33" value="" style="rounded=0;whiteSpace=wrap;html=1;fillColor=#d5e8d4;strokeColor=#82b366;" vertex="1" parent="1">
          <mxGeometry x="672" y="410" width="10" height="10" as="geometry" />
        </mxCell>
        <mxCell id="hglJCg2SkFixT-TFs8rG-34" value="" style="rounded=0;whiteSpace=wrap;html=1;fillColor=#f5f5f5;fontColor=#333333;strokeColor=#666666;" vertex="1" parent="1">
          <mxGeometry x="731" y="410" width="10" height="10" as="geometry" />
        </mxCell>
        <mxCell id="hglJCg2SkFixT-TFs8rG-39" value="le" style="text;html=1;align=center;verticalAlign=middle;whiteSpace=wrap;rounded=0;" vertex="1" parent="1">
          <mxGeometry x="439" y="380" width="52" height="30" as="geometry" />
        </mxCell>
        <mxCell id="hglJCg2SkFixT-TFs8rG-40" value="gène" style="text;html=1;align=center;verticalAlign=middle;whiteSpace=wrap;rounded=0;" vertex="1" parent="1">
          <mxGeometry x="477" y="380" width="52" height="30" as="geometry" />
        </mxCell>
        <mxCell id="hglJCg2SkFixT-TFs8rG-41" value="TP53" style="text;html=1;align=center;verticalAlign=middle;whiteSpace=wrap;rounded=0;" vertex="1" parent="1">
          <mxGeometry x="519" y="380" width="52" height="30" as="geometry" />
        </mxCell>
        <mxCell id="hglJCg2SkFixT-TFs8rG-42" value="régule" style="text;html=1;align=center;verticalAlign=middle;whiteSpace=wrap;rounded=0;" vertex="1" parent="1">
          <mxGeometry x="559" y="380" width="52" height="30" as="geometry" />
        </mxCell>
        <mxCell id="hglJCg2SkFixT-TFs8rG-43" value="la" style="text;html=1;align=center;verticalAlign=middle;whiteSpace=wrap;rounded=0;" vertex="1" parent="1">
          <mxGeometry x="599" y="380" width="52" height="30" as="geometry" />
        </mxCell>
        <mxCell id="hglJCg2SkFixT-TFs8rG-44" value="croissance" style="text;html=1;align=center;verticalAlign=middle;whiteSpace=wrap;rounded=0;" vertex="1" parent="1">
          <mxGeometry x="651" y="380" width="52" height="30" as="geometry" />
        </mxCell>
        <mxCell id="hglJCg2SkFixT-TFs8rG-45" value="cellulaire" style="text;html=1;align=center;verticalAlign=middle;whiteSpace=wrap;rounded=0;" vertex="1" parent="1">
          <mxGeometry x="710" y="380" width="52" height="30" as="geometry" />
        </mxCell>
        <mxCell id="hglJCg2SkFixT-TFs8rG-50" value="" style="rounded=0;whiteSpace=wrap;html=1;fillColor=#dae8fc;strokeColor=#6c8ebf;" vertex="1" parent="1">
          <mxGeometry x="170" y="410" width="10" height="10" as="geometry" />
        </mxCell>
        <mxCell id="hglJCg2SkFixT-TFs8rG-51" value="" style="rounded=0;whiteSpace=wrap;html=1;fillColor=#ffe6cc;strokeColor=#d79b00;" vertex="1" parent="1">
          <mxGeometry x="210" y="410" width="10" height="10" as="geometry" />
        </mxCell>
        <mxCell id="hglJCg2SkFixT-TFs8rG-52" value="" style="rounded=0;whiteSpace=wrap;html=1;fillColor=#f8cecc;strokeColor=#b85450;" vertex="1" parent="1">
          <mxGeometry x="260" y="410" width="10" height="10" as="geometry" />
        </mxCell>
        <mxCell id="hglJCg2SkFixT-TFs8rG-53" value="" style="rounded=0;whiteSpace=wrap;html=1;fillColor=#fff2cc;strokeColor=#d6b656;" vertex="1" parent="1">
          <mxGeometry x="300" y="410" width="10" height="10" as="geometry" />
        </mxCell>
        <mxCell id="hglJCg2SkFixT-TFs8rG-54" value="" style="rounded=0;whiteSpace=wrap;html=1;fillColor=#e1d5e7;strokeColor=#9673a6;" vertex="1" parent="1">
          <mxGeometry x="340" y="410" width="10" height="10" as="geometry" />
        </mxCell>
        <mxCell id="hglJCg2SkFixT-TFs8rG-55" value="" style="rounded=0;whiteSpace=wrap;html=1;fillColor=#d5e8d4;strokeColor=#82b366;" vertex="1" parent="1">
          <mxGeometry x="384" y="410" width="10" height="10" as="geometry" />
        </mxCell>
        <mxCell id="hglJCg2SkFixT-TFs8rG-56" value="" style="rounded=0;whiteSpace=wrap;html=1;fillColor=#f5f5f5;strokeColor=#666666;fontColor=#333333;" vertex="1" parent="1">
          <mxGeometry x="420" y="410" width="10" height="10" as="geometry" />
        </mxCell>
        <mxCell id="hglJCg2SkFixT-TFs8rG-62" value="&lt;font color=&quot;#cc6600&quot;&gt;O&lt;/font&gt;" style="text;html=1;align=center;verticalAlign=middle;whiteSpace=wrap;rounded=0;" vertex="1" parent="1">
          <mxGeometry x="149" y="380" width="52" height="30" as="geometry" />
        </mxCell>
        <mxCell id="hglJCg2SkFixT-TFs8rG-63" value="&lt;font color=&quot;#ff9999&quot;&gt;B-Gène&lt;/font&gt;" style="text;html=1;align=center;verticalAlign=middle;whiteSpace=wrap;rounded=0;" vertex="1" parent="1">
          <mxGeometry x="189" y="380" width="52" height="30" as="geometry" />
        </mxCell>
        <mxCell id="hglJCg2SkFixT-TFs8rG-64" value="&lt;font color=&quot;#ff9999&quot;&gt;I-Gene&lt;/font&gt;" style="text;html=1;align=center;verticalAlign=middle;whiteSpace=wrap;rounded=0;" vertex="1" parent="1">
          <mxGeometry x="239" y="380" width="52" height="30" as="geometry" />
        </mxCell>
        <mxCell id="hglJCg2SkFixT-TFs8rG-65" value="&lt;font color=&quot;#cc6600&quot;&gt;O&lt;/font&gt;" style="text;html=1;align=center;verticalAlign=middle;whiteSpace=wrap;rounded=0;" vertex="1" parent="1">
          <mxGeometry x="279" y="380" width="52" height="30" as="geometry" />
        </mxCell>
        <mxCell id="hglJCg2SkFixT-TFs8rG-66" value="&lt;font color=&quot;#cc6600&quot;&gt;O&lt;/font&gt;" style="text;html=1;align=center;verticalAlign=middle;whiteSpace=wrap;rounded=0;" vertex="1" parent="1">
          <mxGeometry x="319" y="380" width="52" height="30" as="geometry" />
        </mxCell>
        <mxCell id="hglJCg2SkFixT-TFs8rG-67" value="&lt;font color=&quot;#cc6600&quot;&gt;O&lt;/font&gt;" style="text;html=1;align=center;verticalAlign=middle;whiteSpace=wrap;rounded=0;" vertex="1" parent="1">
          <mxGeometry x="363" y="380" width="52" height="30" as="geometry" />
        </mxCell>
        <mxCell id="hglJCg2SkFixT-TFs8rG-68" value="&lt;font color=&quot;#cc6600&quot;&gt;O&lt;/font&gt;" style="text;html=1;align=center;verticalAlign=middle;whiteSpace=wrap;rounded=0;" vertex="1" parent="1">
          <mxGeometry x="399" y="380" width="52" height="30" as="geometry" />
        </mxCell>
      </root>
    </mxGraphModel>
  </diagram>
</mxfile>
